<svg width="24" height="24" viewBox="0 0 24 24" fill="none" xmlns="http://www.w3.org/2000/svg">
<g clip-path="url(#clip0_2288_480)">
<path d="M12.5 11.95C12.9833 11.4167 13.3543 10.8083 13.613 10.125C13.8717 9.44167 14.0007 8.73333 14 8C13.9993 7.26667 13.8703 6.55833 13.613 5.875C13.3557 5.19167 12.9847 4.58333 12.5 4.05C13.5 4.18333 14.3333 4.625 15 5.375C15.6667 6.125 16 7 16 8C16 9 15.6667 9.875 15 10.625C14.3333 11.375 13.5 11.8167 12.5 11.95ZM17.45 20C17.6333 19.7 17.771 19.3793 17.863 19.038C17.955 18.6967 18.0007 18.3507 18 18V17C18 16.4 17.8667 15.829 17.6 15.287C17.3333 14.745 16.9833 14.266 16.55 13.85C17.4 14.15 18.1877 14.5377 18.913 15.013C19.6383 15.4883 20.0007 16.1507 20 17V18C20 18.55 19.8043 19.021 19.413 19.413C19.0217 19.805 18.5507 20.0007 18 20H17.45ZM20 11H19C18.7167 11 18.4793 10.904 18.288 10.712C18.0967 10.52 18.0007 10.2827 18 10C17.9993 9.71733 18.0953 9.48 18.288 9.288C18.4807 9.096 18.718 9 19 9H20V8C20 7.71667 20.096 7.47933 20.288 7.288C20.48 7.09667 20.7173 7.00067 21 7C21.2827 6.99933 21.5203 7.09533 21.713 7.288C21.9057 7.48067 22.0013 7.718 22 8V9H23C23.2833 9 23.521 9.096 23.713 9.288C23.905 9.48 24.0007 9.71733 24 10C23.9993 10.2827 23.9033 10.5203 23.712 10.713C23.5207 10.9057 23.2833 11.0013 23 11H22V12C22 12.2833 21.904 12.521 21.712 12.713C21.52 12.905 21.2827 13.0007 21 13C20.7173 12.9993 20.48 12.9033 20.288 12.712C20.096 12.5207 20 12.2833 20 12V11ZM8 12C6.9 12 5.95833 11.6083 5.175 10.825C4.39167 10.0417 4 9.1 4 8C4 6.9 4.39167 5.95833 5.175 5.175C5.95833 4.39167 6.9 4 8 4C9.1 4 10.0417 4.39167 10.825 5.175C11.6083 5.95833 12 6.9 12 8C12 9.1 11.6083 10.0417 10.825 10.825C10.0417 11.6083 9.1 12 8 12ZM0 18V17.2C0 16.6333 0.146 16.1127 0.438 15.638C0.73 15.1633 1.11733 14.8007 1.6 14.55C2.63333 14.0333 3.68333 13.646 4.75 13.388C5.81667 13.13 6.9 13.0007 8 13C9.1 12.9993 10.1833 13.1287 11.25 13.388C12.3167 13.6473 13.3667 14.0347 14.4 14.55C14.8833 14.8 15.271 15.1627 15.563 15.638C15.855 16.1133 16.0007 16.634 16 17.2V18C16 18.55 15.8043 19.021 15.413 19.413C15.0217 19.805 14.5507 20.0007 14 20H2C1.45 20 0.979333 19.8043 0.588 19.413C0.196667 19.0217 0.000666667 18.5507 0 18Z" fill="#24BAA1"/>
</g>
<defs>
<clipPath id="clip0_2288_480">
<rect width="24" height="24" fill="white"/>
</clipPath>
</defs>
</svg>
