<svg width="24" height="24" viewBox="0 0 24 24" fill="none" xmlns="http://www.w3.org/2000/svg">
<path d="M16 14C17.3261 14 18.5979 14.5268 19.5355 15.4645C20.4732 16.4021 21 17.6739 21 19V20C21 20.5304 20.7893 21.0391 20.4142 21.4142C20.0391 21.7893 19.5304 22 19 22H5C4.46957 22 3.96086 21.7893 3.58579 21.4142C3.21071 21.0391 3 20.5304 3 20V19C3 17.6739 3.52678 16.4021 4.46447 15.4645C5.40215 14.5268 6.67392 14 8 14H16ZM20 8C20.2652 8 20.5196 8.10536 20.7071 8.29289C20.8946 8.48043 21 8.73478 21 9V10H22C22.2652 10 22.5196 10.1054 22.7071 10.2929C22.8946 10.4804 23 10.7348 23 11C23 11.2652 22.8946 11.5196 22.7071 11.7071C22.5196 11.8946 22.2652 12 22 12H21V13C21 13.2652 20.8946 13.5196 20.7071 13.7071C20.5196 13.8946 20.2652 14 20 14C19.7348 14 19.4804 13.8946 19.2929 13.7071C19.1054 13.5196 19 13.2652 19 13V12H18C17.7348 12 17.4804 11.8946 17.2929 11.7071C17.1054 11.5196 17 11.2652 17 11C17 10.7348 17.1054 10.4804 17.2929 10.2929C17.4804 10.1054 17.7348 10 18 10H19V9C19 8.73478 19.1054 8.48043 19.2929 8.29289C19.4804 8.10536 19.7348 8 20 8ZM12 2C13.3261 2 14.5979 2.52678 15.5355 3.46447C16.4732 4.40215 17 5.67392 17 7C17 8.32608 16.4732 9.59785 15.5355 10.5355C14.5979 11.4732 13.3261 12 12 12C10.6739 12 9.40215 11.4732 8.46447 10.5355C7.52678 9.59785 7 8.32608 7 7C7 5.67392 7.52678 4.40215 8.46447 3.46447C9.40215 2.52678 10.6739 2 12 2Z" fill="#757575"/>
</svg>
